<svg xmlns="http://www.w3.org/2000/svg" style="shape-rendering:geometricPrecision;text-rendering:geometricPrecision;image-rendering:optimizeQuality;fill-rule:evenodd;clip-rule:evenodd;">
    <path style="opacity:1" fill="#fff" d="M13.5 12.5c1.967-.24 3.8.094 5.5 1 .5 31.332.667 62.665.5 94 31.335-.167 62.668 0 94 .5 2.667 2 2.667 4 0 6a477.75 477.75 0 0 0-19.5 1.5 434.568 434.568 0 0 0-58.5 0 355.773 355.773 0 0 0-22-1.5 1291.508 1291.508 0 0 1 0-101.5Z"/>
    <path style="opacity:1" fill="#fff" d="M77.5 66.5c1.447 1.385 2.447 1.052 3-1a557.822 557.822 0 0 1 14.5-28c1.523-2.12 3.356-2.453 5.5-1 1.333-1 1.333-2 0-3-3.587 1.768-7.253 2.101-11 1-1.267-1.87-1.267-3.704 0-5.5a183.226 183.226 0 0 0 14.5-4.5 6.544 6.544 0 0 1 3 3c1.811 4.898 2.811 9.898 3 15-4.687 2.389-7.353.722-8-5a453.004 453.004 0 0 1-18 36c-1.4.616-2.9.95-4.5 1a113.84 113.84 0 0 0-20-2.5 1007.656 1007.656 0 0 1-28 25.5c-3.498-.686-4.665-2.686-3.5-6 10.35-9.85 20.85-19.517 31.5-29a87.798 87.798 0 0 0 18 4Z"/>
</svg>
