<svg class="logo-animated" xmlns="http://www.w3.org/2000/svg" width="666.7" height="666.7" version="1.0" viewBox="0 0 500 500">
        <style id="style1">
        @keyframes fly-in {
                0%   { 
                        transform: translateX(200%);
                        opacity: 0;                        
                }

                50% {
                        opacity: 0.1;
                }

                100% { 
                        transform: translateX(0%);
                        opacity: 1;
                }
        }

        .logo-animated {
                animation: fade-in,fly-in 0.5s ease-out;
        }

@media (prefers-reduced-motion) {
        .logo-animated {
                animation: none;
        }
}

        </style>
        <g class="logo" fill="#fff" transform="matrix(.1 0 0 -.1 0 500)">
                <path id="shape1" d="M432 2854c-42-22-68-55-76-98-9-46 6-79 79-172l245-313c102-130 264-337 359-461 96-124 202-256 237-295a567 567 0 0 1 378-204c101-14 375-14 431 0 84 21 132 102 104 173-13 31-164 236-248 335a54709 54709 0 0 1-355 456c-66 83-181 232-250 322a885 885 0 0 1-228 204c-112 57-137 61-398 66-215 3-249 2-278-13z"/>
                <path id="shape2" d="M517 4166c-67-25-97-66-97-135 0-32 9-52 48-103l97-128 190-240c149-186 260-330 337-436 53-74 78-106 168-218l85-107 65-84 70-90 90-115a28958 28958 0 0 0 342-440l263-337c208-268 254-314 370-370 107-51 213-66 435-61 203 4 229 11 269 67 23 33 28 99 10 134-13 25-139 186-181 232-16 17-28 33-28 37 0 3-20 30-44 60a6482 6482 0 0 0-158 203c-65 79-97 119-161 204l-84 111-135 171a7298 7298 0 0 0-178 229l-45 60c-26 40-125 168-219 284l-51 66c-45 62-117 154-245 315-75 94-158 199-185 235l-62 80c-154 199-225 268-327 318-110 53-162 63-391 68-166 4-218 2-248-10z"/>
                <path id="shape3" d="M1960 3761c-86-10-125-41-141-110-12-54-2-75 84-186a14624 14624 0 0 0 142-185c17-21 44-54 60-76a47099 47099 0 0 1 407-509 49836 49836 0 0 1 298-381c8-12 43-57 78-100l100-128 77-100 135-176a5491 5491 0 0 1 154-200c73-98 185-202 258-238 113-57 170-66 398-67 113 0 222 4 242 8 47 10 95 58 104 103 8 43-8 84-58 149a43129 43129 0 0 1-382 490l-122 158-139 178-104 133-101 131a12739 12739 0 0 1-320 410l-80 100c-55 66-63 76-165 207-188 242-256 302-401 355-94 34-369 52-524 34z"/>
                <path id="shape4" d="M2997 3761c-36-5-57-16-85-44-33-34-37-43-37-90 0-58-14-37 218-333 243-312 366-465 406-508 49-53 158-122 232-146 91-31 215-43 395-38 146 4 164 6 198 27 45 28 66 67 66 123-1 49-22 80-280 404l-95 121-217 276a616 616 0 0 1-340 196c-83 13-400 22-461 12z"/>
        </g>
</svg>