<?xml version="1.0" encoding="UTF-8" standalone="no"?>
<svg
   class="logo-animated"
   width="500"
   height="500"
   version="1.0"
   viewBox="0 0 500 500"
   id="svg1"
   sodipodi:docname="Mejri_Media.svg"
   inkscape:version="1.3.2 (091e20e, 2023-11-25, custom)"
   xmlns:inkscape="http://www.inkscape.org/namespaces/inkscape"
   xmlns:sodipodi="http://sodipodi.sourceforge.net/DTD/sodipodi-0.dtd"
   xmlns="http://www.w3.org/2000/svg"
   xmlns:svg="http://www.w3.org/2000/svg">
  <defs
     id="defs1" />
  <sodipodi:namedview
     id="namedview1"
     pagecolor="#505050"
     bordercolor="#ffffff"
     borderopacity="1"
     inkscape:showpageshadow="0"
     inkscape:pageopacity="0"
     inkscape:pagecheckerboard="1"
     inkscape:deskcolor="#505050"
     inkscape:zoom="1.1497556"
     inkscape:cx="99.586379"
     inkscape:cy="271.79689"
     inkscape:window-width="1920"
     inkscape:window-height="1009"
     inkscape:window-x="-8"
     inkscape:window-y="-8"
     inkscape:window-maximized="1"
     inkscape:current-layer="g1" />
  <style
     id="style1">
        @keyframes fly-in {
                0%   { 
                        transform: translateX(200%);
                        opacity: 0;                        
                }

                50% {
                        opacity: 0.1;
                }

                100% { 
                        transform: translateX(0%);
                        opacity: 1;
                }
        }

        .logo-animated {
                animation: fade-in,fly-in 0.5s ease-out;
        }

@media (prefers-reduced-motion) {
        .logo-animated {
                animation: none;
        }
}

        </style>
  <g
     class="logo"
     fill="#fff"
     transform="matrix(.1 0 0 -.1 0 500)"
     id="g1">
    <g
       id="g2"
       transform="matrix(1.2047057,0,0,1.2047057,-359.4132,-807.18437)">
      <path
         id="shape1"
         d="m 432,2854 c -42,-22 -68,-55 -76,-98 -9,-46 6,-79 79,-172 l 245,-313 c 102,-130 264,-337 359,-461 96,-124 202,-256 237,-295 a 567,567 0 0 1 378,-204 c 101,-14 375,-14 431,0 84,21 132,102 104,173 -13,31 -164,236 -248,335 a 54709,54709 0 0 1 -355,456 c -66,83 -181,232 -250,322 a 885,885 0 0 1 -228,204 c -112,57 -137,61 -398,66 -215,3 -249,2 -278,-13 z" />
      <path
         id="shape2"
         d="m 517,4166 c -67,-25 -97,-66 -97,-135 0,-32 9,-52 48,-103 l 97,-128 190,-240 c 149,-186 260,-330 337,-436 53,-74 78,-106 168,-218 l 85,-107 65,-84 70,-90 90,-115 a 28958,28958 0 0 0 342,-440 l 263,-337 c 208,-268 254,-314 370,-370 107,-51 213,-66 435,-61 203,4 229,11 269,67 23,33 28,99 10,134 -13,25 -139,186 -181,232 -16,17 -28,33 -28,37 0,3 -20,30 -44,60 a 6482,6482 0 0 0 -158,203 c -65,79 -97,119 -161,204 l -84,111 -135,171 a 7298,7298 0 0 0 -178,229 l -45,60 c -26,40 -125,168 -219,284 l -51,66 c -45,62 -117,154 -245,315 -75,94 -158,199 -185,235 l -62,80 c -154,199 -225,268 -327,318 -110,53 -162,63 -391,68 -166,4 -218,2 -248,-10 z" />
      <path
         id="shape3"
         d="m 1960,3761 c -86,-10 -125,-41 -141,-110 -12,-54 -2,-75 84,-186 a 14624,14624 0 0 0 142,-185 c 17,-21 44,-54 60,-76 a 47099,47099 0 0 1 407,-509 49836,49836 0 0 1 298,-381 c 8,-12 43,-57 78,-100 l 100,-128 77,-100 135,-176 a 5491,5491 0 0 1 154,-200 c 73,-98 185,-202 258,-238 113,-57 170,-66 398,-67 113,0 222,4 242,8 47,10 95,58 104,103 8,43 -8,84 -58,149 a 43129,43129 0 0 1 -382,490 l -122,158 -139,178 -104,133 -101,131 a 12739,12739 0 0 1 -320,410 l -80,100 c -55,66 -63,76 -165,207 -188,242 -256,302 -401,355 -94,34 -369,52 -524,34 z" />
      <path
         id="shape4"
         d="m 2997,3761 c -36,-5 -57,-16 -85,-44 -33,-34 -37,-43 -37,-90 0,-58 -14,-37 218,-333 243,-312 366,-465 406,-508 49,-53 158,-122 232,-146 91,-31 215,-43 395,-38 146,4 164,6 198,27 45,28 66,67 66,123 -1,49 -22,80 -280,404 l -95,121 -217,276 a 616,616 0 0 1 -340,196 c -83,13 -400,22 -461,12 z" />
    </g>
  </g>
</svg>
