<svg version="1.0"
    xmlns="http://www.w3.org/2000/svg" width="500.000000pt" height="500.000000pt" viewBox="0 0 500.000000 500.000000" preserveAspectRatio="xMidYMid meet">

    <g transform="translate(0.000000,500.000000) scale(0.100000,-0.100000)" fill="#034b7e" stroke="none">
        <path d="M517 4166 c-67 -25 -97 -66 -97 -135 0 -32 9 -52 48 -103 26 -35 70
-92 97 -128 28 -36 113 -144 190 -240 149 -186 260 -330 337 -436 53 -74 78
-106 168 -218 36 -45 74 -93 85 -107 11 -14 40 -52 65 -84 25 -32 56 -72 70
-90 14 -18 54 -70 90 -115 83 -106 140 -179 215 -277 33 -43 90 -116 127 -163
37 -47 155 -198 263 -337 208 -268 254 -314 370 -370 107 -51 213 -66 435 -61
203 4 229 11 269 67 23 33 28 99 10 134 -13 25 -139 186 -181 232 -16 17 -28
33 -28 37 0 3 -20 30 -44 60 -23 29 -65 82 -92 118 -27 36 -57 74 -66 85 -65
79 -97 119 -161 204 -39 53 -77 103 -84 111 -6 8 -67 85 -135 171 -68 86 -132
169 -143 185 -11 15 -27 35 -35 44 -8 9 -28 36 -45 60 -26 40 -125 168 -219
284 -17 21 -40 51 -51 66 -45 62 -117 154 -245 315 -75 94 -158 199 -185 235
-28 35 -55 71 -62 80 -154 199 -225 268 -327 318 -110 53 -162 63 -391 68
-166 4 -218 2 -248 -10z"/>
        <path d="M1960 3761 c-86 -10 -125 -41 -141 -110 -12 -54 -2 -75 84 -186 39
-51 81 -106 92 -121 11 -15 34 -44 50 -64 17 -21 44 -54 60 -76 44 -57 274
-346 293 -369 53 -64 108 -131 114 -140 11 -15 215 -274 251 -319 18 -22 39
-49 47 -62 8 -12 43 -57 78 -100 34 -44 79 -101 100 -128 20 -27 55 -72 77
-100 22 -28 83 -107 135 -176 52 -69 97 -127 100 -130 3 -3 28 -34 54 -70 73
-98 185 -202 258 -238 113 -57 170 -66 398 -67 113 0 222 4 242 8 47 10 95 58
104 103 8 43 -8 84 -58 149 -94 121 -192 247 -258 330 -39 50 -95 122 -124
160 -29 39 -84 109 -122 158 -38 48 -100 128 -139 178 -38 50 -85 110 -104
133 -18 22 -64 82 -101 131 -92 122 -175 229 -229 296 -25 31 -66 82 -91 114
-25 32 -61 77 -80 100 -55 66 -63 76 -165 207 -188 242 -256 302 -401 355 -94
34 -369 52 -524 34z"/>
        <path d="M2997 3761 c-36 -5 -57 -16 -85 -44 -33 -34 -37 -43 -37 -90 0 -58
-14 -37 218 -333 243 -312 366 -465 406 -508 49 -53 158 -122 232 -146 91 -31
215 -43 395 -38 146 4 164 6 198 27 45 28 66 67 66 123 -1 49 -22 80 -280 404
-19 24 -62 78 -95 121 -59 76 -157 200 -217 276 -74 92 -223 178 -340 196 -83
13 -400 22 -461 12z"/>
        <path d="M432 2854 c-42 -22 -68 -55 -76 -98 -9 -46 6 -79 79 -172 33 -42 143
-183 245 -313 102 -130 264 -337 359 -461 96 -124 202 -256 237 -295 107 -122
219 -182 378 -204 101 -14 375 -14 431 0 84 21 132 102 104 173 -13 31 -164
236 -248 335 -25 30 -62 76 -81 102 -40 53 -193 250 -274 354 -66 83 -181 232
-250 322 -56 74 -167 173 -228 204 -112 57 -137 61 -398 66 -215 3 -249 2
-278 -13z"/>
    </g>
</svg>
